<svg width="85" height="85" viewBox="0 0 85 85" fill="none" xmlns="http://www.w3.org/2000/svg">
<path d="M73.8367 12.75L64.6142 8.755L58.6217 1.54417C58.0833 0.920833 57.5875 0 56.6667 0H28.3333C27.4975 0 26.9875 0.821667 26.5058 1.41667L20.3858 8.755L11.1633 12.75C4.40966 15.6438 0.0222225 22.275 0 29.6225V75.0833C0 80.5602 4.43984 85 9.91667 85H75.0833C80.5602 85 85 80.5602 85 75.0833V29.6225C84.9778 22.275 80.5903 15.6438 73.8367 12.75ZM60.9875 38.7033L63.495 46.2258L45.6592 59.6133L63.5092 14.365L69.1758 34.4958L61.9508 36.9042C61.5803 37.0087 61.2683 37.2595 61.0866 37.5989C60.9049 37.9383 60.8691 38.337 60.9875 38.7033ZM23.12 36.9042L15.895 34.4958L21.4908 14.365L39.3408 59.6133L21.505 46.2258L24.0833 38.7033C24.2017 38.337 24.166 37.9383 23.9842 37.5989C23.8025 37.2595 23.4905 37.0087 23.12 36.9042ZM28.3333 3.57L40.545 17L34.0992 23.4317L23.0917 9.91667L28.3333 3.57ZM61.9083 9.91667L50.9008 23.375L44.455 17L56.6667 3.57L61.9083 9.91667ZM44.9083 25.3017C44.9616 25.7081 44.8363 26.1177 44.5646 26.4247C44.2929 26.7317 43.9016 26.906 43.4917 26.9025C41.3808 26.9025 40.97 27.0158 40.46 26.4067C40.1958 26.0976 40.0772 25.69 40.1342 25.2875L40.7717 20.7258L42.5 18.9975L44.2425 20.74L44.9083 25.3017ZM38.8733 28.7725L35.6292 42.5L25.8967 17.85L32.9092 26.35C33.1613 26.6605 33.533 26.8499 33.9324 26.8715C34.3318 26.8931 34.7217 26.7448 35.0058 26.4633L37.4283 24.0833L37.315 24.905C37.0904 26.3798 37.6745 27.8617 38.845 28.7867L38.8733 28.7725ZM41.565 29.7358H43.4917L47.5858 47.0758L42.5283 59.8258L37.4708 47.0758L41.565 29.7358ZM49.3992 42.4858L46.1833 28.7867C47.3563 27.8636 47.941 26.3802 47.7133 24.905L47.5717 24.0833C50.1358 26.6475 50.2208 26.9167 51 26.9167C51.4237 26.9139 51.8239 26.7216 52.0908 26.3925L59.1033 17.8925L49.3992 42.4858ZM42.5 14.8892L31.535 2.83333H53.465L42.5 14.8892ZM2.83333 75.0833V29.6225C2.83443 23.388 6.55132 17.7541 12.2825 15.3L19.0967 12.3817L12.75 35.0342C12.6316 35.4005 12.6674 35.7992 12.8491 36.1386C13.0308 36.478 13.3428 36.7288 13.7133 36.8333L20.8675 39.2133L18.4875 46.3675C18.2925 46.948 18.4925 47.588 18.9833 47.9542L41.0833 64.4583V82.1667H9.91667C6.00465 82.1667 2.83333 78.9953 2.83333 75.0833ZM82.1667 75.0833C82.1667 78.9953 78.9953 82.1667 75.0833 82.1667H43.9167V64.4583L66.0167 47.8833C66.5337 47.5364 66.7636 46.8926 66.5833 46.2967L64.2033 39.1425L71.2867 36.7625C72.0236 36.5432 72.4511 35.7762 72.25 35.0342L65.96 12.3675L72.7742 15.2858C78.4879 17.7593 82.181 23.3964 82.1667 29.6225V75.0833Z" fill="black"/>
</svg>
