<svg width="107" height="55" viewBox="0 0 107 55" fill="none" xmlns="http://www.w3.org/2000/svg">
<path d="M106.998 41.2387C106.995 30.6452 102.915 20.4591 95.604 12.7932C88.2926 5.12728 78.311 0.569742 67.7295 0.065854L67.3823 0.0493098C58.1875 -0.401076 49.1071 2.24414 41.5927 7.56212C34.0783 12.8801 28.5637 20.5638 25.9304 29.385L24.3298 34.7197L9.66148 36.2303C7.58802 36.3458 5.59754 37.0837 3.94974 38.3475C2.30194 39.6114 1.07336 41.3426 0.424287 43.3152C-0.0509824 44.7382 -0.128629 46.2639 0.199726 47.7277C0.528082 49.1915 1.24997 50.5379 2.28749 51.6215C3.325 52.7051 4.63874 53.4848 6.08694 53.8764C7.53513 54.2681 9.06278 54.2568 10.505 53.8437L34.3922 47.019C40.1981 50.5849 47.1159 51.8824 53.8193 50.6628L81.5285 45.6249L104.79 50.9411C105.055 51.0017 105.33 51.0017 105.595 50.9414C105.86 50.881 106.107 50.7617 106.32 50.5924C106.532 50.4231 106.703 50.2081 106.821 49.9634C106.939 49.7187 107 49.4506 107 49.179L106.998 41.2387ZM81.0928 6.90102C84.5321 9.38059 87.2963 12.6814 89.1335 16.5026C90.9706 20.3238 91.8224 24.544 91.6112 28.7787L90.8838 44.0557L73.3388 40.0459L78.2014 24.4858C80.0653 18.5372 80.3984 12.2146 79.1699 6.10307C79.4779 6.22059 79.785 6.34081 80.0905 6.4666C80.4279 6.60551 80.7605 6.75292 81.0928 6.90102ZM51.6485 35.0888C47.0009 34.0258 42.2423 33.5252 37.4751 33.5979L38.9578 28.6556C41.0275 21.7459 45.2007 15.6537 50.8961 11.2275C56.5915 6.80128 63.5254 4.26149 70.7323 3.96185C72.2269 4.16079 73.708 4.44981 75.1677 4.82734C76.7861 10.9359 76.6419 17.3778 74.7518 23.4078L69.8047 39.2382L51.6485 35.0888ZM29.3921 30.4235C31.0371 24.9158 33.9245 19.8591 37.8319 15.6432C41.7393 11.4273 46.5623 8.16468 51.9294 6.10665C44.015 11.0365 38.1717 18.6851 35.4958 27.6171L33.6476 33.7779C33.1827 33.8149 32.7178 33.8558 32.2532 33.9037L28.2234 34.3187L29.3921 30.4235ZM9.51214 50.3687C8.70254 50.6 7.84517 50.6059 7.03245 50.3858C6.21973 50.1658 5.48249 49.7281 4.90021 49.1199C4.31792 48.5117 3.91268 47.7561 3.72816 46.9346C3.54365 46.1131 3.58686 45.2568 3.85313 44.458C4.2775 43.1683 5.08169 42.0369 6.16025 41.2123C7.23881 40.3876 8.54141 39.9081 9.89724 39.8366H16.6279C21.6493 39.8447 26.5434 41.417 30.6299 44.3351L9.51214 50.3687ZM53.173 47.1069C49.7961 47.721 46.3269 47.6055 42.9983 46.7683C39.6697 45.931 36.5588 44.3913 33.8743 42.2525C31.6931 40.5172 29.2622 39.1215 26.6639 38.1126L32.6233 37.4988C38.7166 36.869 44.8721 37.2451 50.8434 38.612L72.5768 43.5791L53.173 47.1069ZM94.4632 44.8737L95.2214 28.9505C95.4675 23.9248 94.4058 18.9212 92.14 14.4285C95.7003 17.9272 98.5281 22.0999 100.459 26.7031C102.389 31.3063 103.384 36.2479 103.384 41.2396L103.385 46.9127L94.4632 44.8737Z" fill="black"/>
</svg>
