<svg width="81" height="85" viewBox="0 0 81 85" fill="none" xmlns="http://www.w3.org/2000/svg">
<path d="M37.0173 7.3002H44.0224C44.7726 7.3002 45.3803 6.69922 45.3803 5.95813C45.3803 5.21687 44.7726 4.61606 44.0224 4.61606H37.0173C36.2671 4.61606 35.6594 5.21703 35.6594 5.95813C35.6594 6.69922 36.2671 7.3002 37.0173 7.3002Z" fill="black"/>
<path d="M80.9031 31.9902L76.2307 12.9637C76.1843 12.7754 75.0479 8.3305 70.5799 6.45369C67.3458 5.09535 57.1179 1.25757 54.557 0.29916C54.3237 0.112393 54.0267 0 53.7031 0H53.5085H27.4334C27.3899 0 27.3467 0.00232422 27.3034 0.00647461C27.2848 0.00830078 27.2665 0.0114551 27.248 0.0139453C27.2243 0.0170996 27.2006 0.0202539 27.1769 0.0247363C27.1549 0.0288867 27.1333 0.0343652 27.1116 0.0395117C27.0923 0.0441602 27.0728 0.0488086 27.0535 0.0541211C27.031 0.0605957 27.0091 0.0680664 26.987 0.0755371C26.9757 0.0795215 26.9643 0.0823438 26.953 0.0864941C26.4256 0.283555 13.9905 4.92934 10.3617 6.45369C6.06611 8.25828 4.85069 12.4346 4.72219 12.921C4.72219 12.9212 4.72219 12.9213 4.72202 12.9215C4.71967 12.9306 4.71782 12.9378 4.71598 12.9442C4.71362 12.953 4.71194 12.96 4.7111 12.9633L1.3907 26.4845C1.3907 26.4845 1.3907 26.4845 1.3907 26.4846L0.0385497 31.9904C-0.121189 32.6403 0.227851 33.3072 0.856894 33.5542L14.2054 38.7954V78.2018V83.6579C14.2054 84.3994 14.8132 85 15.5632 85H65.3782C66.1284 85 66.7361 84.3994 66.7361 83.6579V78.2018V52.6482C66.7361 51.9069 66.1284 51.3061 65.3782 51.3061C64.6281 51.3061 64.0204 51.9071 64.0204 52.6482V76.8596H30.648C29.8979 76.8596 29.2901 77.4604 29.2901 78.2017C29.2901 78.9429 29.8979 79.5437 30.648 79.5437H64.0205V82.3157H16.9214V79.5437H26.1217C26.8719 79.5437 27.4796 78.9427 27.4796 78.2017C27.4796 77.4602 26.8719 76.8596 26.1217 76.8596H16.9214V37.8841V32.129V21.7291C16.9214 21.4842 16.8537 21.2442 16.7256 21.0347L9.87749 9.84107C10.3196 9.48995 10.8321 9.17303 11.4245 8.92417C14.2045 7.75642 22.5408 4.61308 26.181 3.24677C27.0543 11.1785 33.2871 17.5575 40.5684 17.5575C47.828 17.5575 54.0462 11.216 54.9484 3.31683C58.6798 4.718 66.7843 7.77584 69.5178 8.924C70.1102 9.17286 70.6225 9.48979 71.0648 9.84091L64.2169 21.0343C64.0887 21.2439 64.021 21.4841 64.021 21.7288V32.1287V37.8839V48.1744C64.021 48.9158 64.6289 49.5165 65.3789 49.5165C66.129 49.5165 66.7368 48.9158 66.7368 48.1744V38.7949L80.0852 33.5537C80.7136 33.3071 81.0626 32.6402 80.9031 31.9902ZM14.2057 35.9069L2.95634 31.4898L3.65441 28.6477L14.2055 33.0213V35.9069H14.2057ZM14.2057 22.1032V30.1106L4.30328 26.0058L7.34922 13.6027C7.35309 13.5875 7.53802 12.8954 8.03689 12.0199L14.2057 22.1032ZM40.5682 14.8732C35.2011 14.8732 29.4761 10.0313 28.8482 2.68414H52.2886C51.6604 10.0315 45.9353 14.8732 40.5682 14.8732ZM66.7364 22.1032L72.9054 12.0195C73.2321 12.5928 73.4244 13.0872 73.5185 13.3628C73.5187 13.3636 73.519 13.3644 73.5193 13.3653C73.5282 13.3913 73.536 13.4151 73.5432 13.437C73.5445 13.4411 73.5459 13.4454 73.5472 13.4494C73.5528 13.4669 73.5578 13.4825 73.5622 13.4969C73.564 13.5024 73.5659 13.5085 73.5674 13.5137C73.5711 13.5255 73.5741 13.5359 73.5768 13.5452C73.5781 13.5495 73.5795 13.5547 73.5806 13.5585C73.5828 13.566 73.5845 13.5718 73.5858 13.5771C73.5867 13.5802 73.588 13.5846 73.5887 13.5871C73.59 13.5917 73.5911 13.596 73.5912 13.5967L76.6387 26.006L66.7363 30.1108V22.1032H66.7364ZM66.7364 35.9069V33.0213L77.2875 28.6477L77.9855 31.49L66.7364 35.9069Z" fill="black"/>
</svg>
