<svg width="49" height="85" viewBox="0 0 49 85" fill="none" xmlns="http://www.w3.org/2000/svg">
<path d="M43.9023 1.21639C43.8541 0.878806 43.6858 0.569943 43.4282 0.3465C43.1706 0.123056 42.841 2.76607e-05 42.5 0H5.66667C5.32566 2.76607e-05 4.99611 0.123056 4.73851 0.3465C4.48091 0.569943 4.31255 0.878806 4.26434 1.21639C4.22167 1.51477 0 31.2616 0 48.1667V83.5833C0 83.9591 0.149256 84.3194 0.414932 84.5851C0.680609 84.8507 1.04094 85 1.41667 85H18.4167C18.778 85 19.1256 84.8619 19.3885 84.6141C19.6514 84.3662 19.8096 84.0272 19.8309 83.6666C19.845 83.4252 21.25 59.4277 21.25 49.5833C21.25 43.6105 22.8615 36.4829 24.0833 31.9407C25.3052 36.4809 26.9167 43.6054 26.9167 49.5833C26.9167 59.4277 28.3216 83.4252 28.3358 83.6666C28.357 84.0272 28.5153 84.3662 28.7782 84.6141C29.041 84.8619 29.3887 85 29.75 85H46.75C47.1257 85 47.4861 84.8507 47.7517 84.5851C48.0174 84.3194 48.1667 83.9591 48.1667 83.5833V48.1667C48.1667 31.2616 43.945 1.51477 43.9023 1.21639ZM43.036 17H42.3052C41.1402 16.9984 40.0158 16.5722 39.1425 15.8011C38.2692 15.0301 37.7068 13.9672 37.5608 12.8114L37.0216 8.5H42.0127C42.3183 10.9059 42.6737 13.8125 43.036 17ZM41.6466 5.66667H34V2.83333H41.2666C41.3608 3.5213 41.4906 4.4841 41.6466 5.66667ZM25.5 8.5H28.3333V18.4167C28.3329 18.7923 28.1835 19.1523 27.9179 19.4179C27.6524 19.6835 27.2923 19.8329 26.9167 19.8333H25.5V8.5ZM25.5 2.83333H31.1667V5.66667H25.5V2.83333ZM22.6667 5.66667H17V2.83333H22.6667V5.66667ZM14.1667 2.83333V5.66667H6.52021C6.67569 4.4841 6.80584 3.5213 6.90005 2.83333H14.1667ZM10.7908 11.3333H5.80054C5.92361 10.3294 6.04208 9.38064 6.15471 8.5H11.1458L10.7908 11.3333ZM10.2264 14.1667C9.84919 15.0093 9.23655 15.725 8.46217 16.2277C7.6878 16.7303 6.78467 16.9985 5.86146 17H5.13064C5.24131 16.0271 5.3511 15.0806 5.4593 14.1667H10.2264ZM18.4167 49.5833C18.4167 58.0079 17.3738 76.9748 17.079 82.1667H2.83333V48.1667C2.83333 40.1324 3.80357 29.1268 4.81525 19.8333H5.86146C7.71669 19.8307 9.50737 19.152 10.8982 17.9242C12.289 16.6964 13.1846 15.0037 13.4173 13.1631L14.0006 8.5H22.6667V26.6902C22.0823 28.4895 18.4167 40.151 18.4167 49.5833ZM45.3333 82.1667H31.0877C30.7928 76.9748 29.75 58.0079 29.75 49.5833C29.75 40.151 26.0844 28.4895 25.5 26.6902V22.6667H26.9167C28.0434 22.6654 29.1237 22.2172 29.9205 21.4205C30.7172 20.6237 31.1654 19.5434 31.1667 18.4167V8.5H34.1661L34.7494 13.163C34.982 15.0036 35.8776 16.6963 37.2684 17.9241C38.6593 19.152 40.45 19.8307 42.3052 19.8333H43.3514C44.3633 29.1263 45.3333 40.1315 45.3333 48.1667V82.1667Z" fill="black"/>
</svg>
