<svg width="58" height="85" viewBox="0 0 58 85" fill="none" xmlns="http://www.w3.org/2000/svg">
<path d="M23.3065 24.6774C13.4794 24.6774 5.48389 32.6729 5.48389 42.5C5.48389 52.3271 13.4794 60.3226 23.3065 60.3226C33.1336 60.3226 41.129 52.3271 41.129 42.5C41.129 32.6729 33.1336 24.6774 23.3065 24.6774ZM38.3172 43.871C38.0334 47.0009 36.794 49.8566 34.887 52.1434L32.9992 50.2556L31.0607 52.1941L32.9485 54.0819C30.6631 55.989 27.806 57.2269 24.6761 57.5107V54.8387H21.9341V57.5107C18.8042 57.2269 15.9485 55.9876 13.6617 54.0819L15.5495 52.1941L13.611 50.2556L11.7232 52.1434C9.81615 49.858 8.57679 47.0009 8.293 43.871H10.9678V41.129H8.29574C8.57953 37.9991 9.81889 35.1434 11.7245 32.8566L13.6124 34.7444L15.5509 32.8059L13.6631 30.9181C15.9485 29.0111 18.8056 27.7731 21.9355 27.4893V30.1613H24.6774V27.4893C27.8074 27.7731 30.6631 29.0124 32.9499 30.9181L31.062 32.8059L33.0006 34.7444L34.8884 32.8566C36.7954 35.142 38.0334 37.9991 38.3172 41.129H35.6452V43.871H38.3172Z" fill="black"/>
<path d="M53.4677 35.6452C51.6827 35.6452 50.1747 36.7954 49.6071 38.3871H46.2263C45.6313 35.0652 44.3453 31.9847 42.4986 29.3085V19.1935C42.4986 16.1692 40.0391 13.7097 37.0148 13.7097V4.1129C37.0148 1.84532 35.1694 0 32.9019 0H13.7097C11.4421 0 9.59677 1.84532 9.59677 4.1129V13.7097C6.57242 13.7097 4.1129 16.1692 4.1129 19.1935V29.3085C1.52452 33.0636 0 37.6056 0 42.5C0 47.3944 1.52452 51.9377 4.1129 55.6915V65.8064C4.1129 68.8308 6.57242 71.2903 9.59677 71.2903V80.8871C9.59677 83.1547 11.4421 85 13.7097 85H32.9032C35.1708 85 37.0161 83.1547 37.0161 80.8871V71.2903C40.0405 71.2903 42.5 68.8308 42.5 65.8064V55.6915C44.3453 53.0153 45.6327 49.9334 46.2277 46.6129H49.6085C50.1761 48.2046 51.6841 49.3548 53.4691 49.3548C55.7367 49.3548 57.582 47.5095 57.582 45.2419V39.7581C57.5806 37.4905 55.7353 35.6452 53.4677 35.6452ZM39.7581 19.1935V26.0086C38.9108 25.1627 37.984 24.4019 37.0161 23.6944V16.4516C38.5283 16.4516 39.7581 17.6814 39.7581 19.1935ZM17.8226 16.4516H12.3387V10.9677H17.8226V16.4516ZM12.3387 19.1935H17.8226V19.8722C15.8923 20.3397 14.0483 21.0306 12.3387 21.9465V19.1935ZM20.5645 2.74194H26.0484V19.369C25.1477 19.2635 24.236 19.1935 23.3065 19.1935C22.3769 19.1935 21.4652 19.2635 20.5645 19.369V2.74194ZM34.2742 16.4516H28.7903V10.9677H34.2742V16.4516ZM28.7903 19.1935H34.2742V21.9465C32.5646 21.0306 30.7206 20.3397 28.7903 19.8722V19.1935ZM34.2742 4.1129V8.22581H28.7903V2.74194H32.9032C33.6586 2.74194 34.2742 3.3575 34.2742 4.1129ZM13.7097 2.74194H17.8226V8.22581H12.3387V4.1129C12.3387 3.3575 12.9543 2.74194 13.7097 2.74194ZM9.59677 16.4516V23.6944C8.62887 24.4019 7.7021 25.1641 6.85484 26.0086V19.1935C6.85484 17.6814 8.0846 16.4516 9.59677 16.4516ZM6.85484 65.8064V58.9914C7.7021 59.8373 8.62887 60.5981 9.59677 61.3056V68.5484C8.0846 68.5484 6.85484 67.3186 6.85484 65.8064ZM28.7903 68.5484H34.2742V74.0323H28.7903V68.5484ZM34.2742 65.8064H28.7903V65.1278C30.7206 64.6603 32.5646 63.9694 34.2742 63.0536V65.8064ZM26.0484 82.2581H20.5645V65.631C21.4652 65.7365 22.3769 65.8064 23.3065 65.8064C24.236 65.8064 25.1477 65.7365 26.0484 65.631V82.2581ZM12.3387 68.5484H17.8226V74.0323H12.3387V68.5484ZM17.8226 65.8064H12.3387V63.0536C14.0483 63.9694 15.8923 64.6603 17.8226 65.1278V65.8064ZM12.3387 80.8871V76.7742H17.8226V82.2581H13.7097C12.9543 82.2581 12.3387 81.6439 12.3387 80.8871ZM32.9032 82.2581H28.7903V76.7742H34.2742V80.8871C34.2742 81.6439 33.6586 82.2581 32.9032 82.2581ZM37.0161 68.5484V61.3056C37.984 60.5981 38.9108 59.8359 39.7581 58.9914V65.8064C39.7581 67.3186 38.5283 68.5484 37.0161 68.5484ZM23.3065 63.0645C11.9672 63.0645 2.74194 53.8393 2.74194 42.5C2.74194 31.1607 11.9672 21.9355 23.3065 21.9355C34.6457 21.9355 43.871 31.1607 43.871 42.5C43.871 53.8393 34.6457 63.0645 23.3065 63.0645ZM46.543 41.129H49.3548V43.871H46.543C46.5704 43.4144 46.6129 42.9634 46.6129 42.5C46.6129 42.0366 46.5704 41.5856 46.543 41.129ZM54.8387 45.2419C54.8387 45.9987 54.2231 46.6129 53.4677 46.6129C52.7123 46.6129 52.0968 45.9987 52.0968 45.2419V39.7581C52.0968 39.0027 52.7123 38.3871 53.4677 38.3871C54.2231 38.3871 54.8387 39.0027 54.8387 39.7581V45.2419Z" fill="black"/>
<path d="M15.4823 36.6145L21.3679 42.5L18.2242 45.6436L20.1628 47.5822L25.245 42.5L17.4209 34.6759L15.4823 36.6145Z" fill="black"/>
</svg>
