<svg width="108" height="50" viewBox="0 0 108 50" fill="none" xmlns="http://www.w3.org/2000/svg">
<path d="M101.328 1.98038C99.8324 2.00816 98.3488 2.24528 96.9195 2.68496C96.1438 2.93676 95.6332 3.67701 95.673 4.49157V9.20681C92.172 11.4793 88.0446 12.5917 83.8758 12.3864C82.6654 12.3864 81.7079 12.3864 81.1478 12.26L69.3326 1.07708C68.4296 0.310628 67.2623 -0.0719216 66.0807 0.0111823C59.6673 0.0111823 45.0157 7.23761 37.2834 11.7722C28.1059 17.192 9.49781 20.3355 9.31715 20.3716L8.93776 20.48C-0.474664 24.3823 -0.709522 32.1507 0.537037 35.8723C3.13855 49.2232 32.5682 50 39.2707 50H103.803C104.8 50 105.609 49.1911 105.609 48.1934V38.5642C106.551 37.4773 107.176 36.1524 107.416 34.7342C107.423 34.6441 107.423 34.5533 107.416 34.4632V7.36407C107.362 3.96765 105.067 1.98038 101.328 1.98038ZM29.3344 19.1612L31.7191 23.4971C32.2179 24.3701 33.3301 24.6734 34.2032 24.1746C35.0762 23.6757 35.3795 22.5635 34.8806 21.6905L32.7669 17.8424C34.3025 17.2462 35.7659 16.6139 37.1208 15.9274L40.1379 20.5342C40.6728 21.3766 41.7893 21.6257 42.6314 21.0907C43.4735 20.5557 43.7229 19.4392 43.1879 18.5971C43.1773 18.5802 43.1662 18.5637 43.1549 18.5472L40.3005 14.1933C41.6012 13.4526 42.9381 12.7119 44.3292 11.9892L47.9424 17.2645C48.4686 18.1123 49.5824 18.3731 50.4301 17.8469C51.2779 17.3207 51.5387 16.207 51.0125 15.3592C50.9795 15.3059 50.9436 15.2544 50.9052 15.205L47.5088 10.3271C49.1167 9.53223 50.7426 8.75539 52.3144 8.05081L56.5419 14.1933C57.0956 15.0234 58.2173 15.2474 59.0474 14.6937C59.8775 14.14 60.1015 13.0183 59.5478 12.1882C59.5397 12.176 59.5313 12.1638 59.523 12.1518L55.7652 6.73199C59.0137 5.20382 62.4829 4.19777 66.0448 3.75109C66.3025 3.71608 66.564 3.71608 66.8217 3.75109L74.0481 10.5259C66.9154 20.0907 56.9741 27.1898 45.6121 30.8321C40.6137 29.2041 35.4624 28.0904 30.2379 27.508C25.5917 27.1816 21.1665 25.399 17.5916 22.4133C21.2046 21.6182 25.3056 20.5342 29.3344 19.1612ZM10.1121 23.9487C10.5637 23.9487 11.7199 23.6597 13.3097 23.3345C17.7822 27.8767 23.7537 30.6379 30.1112 31.1029C36.0549 31.3919 48.5928 35.4026 57.2103 38.3293H49.2974C16.5797 38.4558 6.75176 35.8723 3.82506 34.0657C3.40954 32.4398 2.83143 27.0019 10.1121 23.9487ZM101.996 46.3687H40.1379C32.1888 46.4771 13.2375 45.2306 6.44464 39.0158C12.0813 40.5153 23.8061 42.069 49.4058 42.069C55.4037 42.069 61.4558 42.069 67.2008 41.8522C72.6207 41.7257 77.7334 41.5631 82.3041 41.3825C93.3966 40.967 101.147 40.5153 101.237 40.4972C101.49 40.5142 101.743 40.5142 101.996 40.4972V46.3687ZM103.803 34.3006C103.694 34.8245 103.134 36.9021 101.093 36.9021C100.966 36.9021 94.3361 37.2996 84.5985 37.697C88.0852 25.3037 99.1416 21.2027 103.803 20.0284V34.3006ZM80.8046 37.8415C76.7036 37.9861 72.1871 38.1306 67.4538 38.239C65.8459 37.6247 59.0169 35.0955 51.3569 32.6385C61.3673 28.4641 70.0939 21.7135 76.6494 13.073L79.016 15.3493C79.2855 15.602 79.626 15.7659 79.9916 15.819C81.2556 15.9834 82.529 16.062 83.8036 16.0539C88.1394 16.0539 94.2277 15.2228 98.6177 11.2844C98.9962 10.943 99.2128 10.4572 99.2139 9.94752V5.81039C99.8801 5.6749 100.558 5.60218 101.237 5.5936C103.712 5.5936 103.748 6.67756 103.767 7.40021L103.803 16.3248C99.0152 17.463 84.5443 22.1241 80.8046 37.8415Z" fill="black"/>
</svg>
