<svg width="85" height="85" viewBox="0 0 85 85" fill="none" xmlns="http://www.w3.org/2000/svg">
<path d="M22.2268 60.2831C21.5712 60.2831 20.9305 60.549 20.4674 61.0121C20.0025 61.4751 19.7366 62.1177 19.7366 62.7714C19.7366 63.4271 20.0025 64.0697 20.4674 64.5328C20.9305 64.9964 21.5712 65.2617 22.2268 65.2617C22.8824 65.2617 23.5251 64.9964 23.9881 64.5328C24.4512 64.0697 24.717 63.4271 24.717 62.7714C24.717 62.1177 24.4512 61.4751 23.9881 61.0121C23.5251 60.549 22.8824 60.2831 22.2268 60.2831Z" fill="black"/>
<path d="M15.6262 66.8835C14.9706 66.8835 14.3299 67.1494 13.8649 67.6125C13.4019 68.0774 13.136 68.7181 13.136 69.3738C13.136 70.0294 13.4019 70.6721 13.8649 71.1351C14.3299 71.5981 14.9725 71.864 15.6262 71.864C16.2819 71.864 16.9226 71.5981 17.3875 71.1351C17.8506 70.6721 18.1165 70.0294 18.1165 69.3738C18.1165 68.7181 17.8506 68.0774 17.3875 67.6125C16.9245 67.1494 16.2819 66.8835 15.6262 66.8835Z" fill="black"/>
<path d="M84.9959 18.5842C84.9959 16.1322 84.0459 13.8326 82.3215 12.1089L72.8917 2.67846C69.3211 -0.892819 63.5112 -0.892819 59.9406 2.67846L44.994 17.6244C44.9882 17.6302 44.983 17.6354 44.9772 17.6412L41.9999 20.6185C39.5596 20.6263 37.2717 21.575 35.5545 23.2922L22.3524 36.4937C20.5736 38.2732 19.6812 40.6071 19.6748 42.9437L2.6744 59.9447C0.950049 61.6684 0 63.9686 0 66.4199C0 68.8719 0.950049 71.1714 2.6744 72.8958L12.1042 82.3256C13.8286 84.0506 16.1281 85 18.5801 85C21.0314 85 23.3316 84.0506 25.056 82.3256L42.0602 65.3214C44.4999 65.3136 46.7884 64.3655 48.5063 62.6476L61.7071 49.4461C63.425 47.7283 64.3737 45.4404 64.3815 43.0001L82.3215 25.06C84.0459 23.335 84.9959 21.0348 84.9959 18.5842ZM56.1676 17.9862C59.0651 17.9862 61.7882 19.114 63.8368 21.1632C65.8854 23.2112 67.0138 25.9349 67.0138 28.8317C67.0138 31.7292 65.8854 34.4522 63.8368 36.5008L62.6857 37.6519C62.3939 37.244 62.0683 36.8556 61.7071 36.4943L48.5057 23.2922C48.1438 22.931 47.756 22.6055 47.3474 22.3137L48.5057 21.1561C50.5536 19.112 53.2741 17.9862 56.1676 17.9862ZM21.534 78.8043C20.75 79.5883 19.7013 80.0195 18.5801 80.0195C17.4588 80.0195 16.4102 79.5883 15.6262 78.8043L6.19574 69.3738C5.41171 68.5898 4.98046 67.5412 4.98046 66.4199C4.98046 65.2987 5.41236 64.25 6.19574 63.466L21.3738 48.2879C21.6637 48.6932 21.9886 49.0817 22.3524 49.4455L27.1928 54.2859L27.0676 54.411C26.0949 55.3838 26.0949 56.9603 27.0676 57.933C27.5534 58.4194 28.1908 58.6619 28.8283 58.6619C29.4651 58.6619 30.1026 58.4194 30.589 57.9324L30.7141 57.8072L35.5545 62.6476C35.9157 63.0088 36.3035 63.3344 36.7121 63.6262L21.534 78.8043ZM58.1858 45.9241L44.985 59.1256C44.2009 59.9096 43.1517 60.3415 42.0304 60.3415C40.9085 60.3415 39.8599 59.9096 39.0759 59.1263L34.2355 54.2859L36.3723 52.1497L40.2691 56.0465C40.7555 56.5329 41.3929 56.7761 42.0298 56.7761C42.6672 56.7761 43.3047 56.5329 43.7904 56.0465L55.1074 44.7303C55.5743 44.2633 55.8363 43.6304 55.8363 42.9696C55.8363 42.3094 55.5743 41.6758 55.1074 41.2089L43.7911 29.8933C42.819 28.9205 41.2418 28.9205 40.2697 29.8933L28.9528 41.2089C28.4859 41.6765 28.2239 42.3094 28.2239 42.9702C28.2239 43.6304 28.4859 44.264 28.9528 44.7309L32.8503 48.6284L30.7141 50.7645L25.8737 45.9241C25.2402 45.2899 24.8543 44.5013 24.7136 43.6791C24.7058 43.5947 24.6948 43.5111 24.6786 43.4281C24.545 42.2115 24.9432 40.9463 25.8737 40.0157L39.0765 26.8136C39.8599 26.0302 40.9085 25.5983 42.0298 25.5983C43.151 25.5983 44.2003 26.0302 44.9843 26.8142L58.1858 40.0157C58.9698 40.7997 59.4017 41.849 59.4017 42.9696C59.4017 44.0908 58.9698 45.1401 58.1858 45.9241ZM40.0188 44.9812C39.0467 44.0085 37.4695 44.0085 36.4974 44.9812L36.3723 45.1064L34.2355 42.9696L42.0304 35.1753L49.8247 42.9696L42.0298 50.7639L39.8936 48.6277L40.0188 48.5026C40.9915 47.5305 40.9915 45.9533 40.0188 44.9812ZM78.8002 21.5381L71.9864 28.3518C71.8665 24.3045 70.2342 20.5173 67.3588 17.6412C64.4833 14.7658 60.6955 13.1335 56.6482 13.0136L63.4619 6.1998C65.091 4.57077 67.7414 4.57077 69.3704 6.1998L78.8002 15.6302C79.5842 16.4143 80.0155 17.4629 80.0155 18.5842C80.0155 19.7048 79.5836 20.754 78.8002 21.5381Z" fill="black"/>
</svg>
