<svg width="78" height="62" viewBox="0 0 78 62" fill="none" xmlns="http://www.w3.org/2000/svg">
<path d="M77.9884 55.4712L74.0305 29.0723L70.9416 8.46588V1.06203C70.9416 0.780361 70.8292 0.51023 70.6292 0.311061C70.4292 0.111892 70.158 0 69.8752 0H8.12486C7.84203 0 7.57078 0.111892 7.37079 0.311061C7.1708 0.51023 7.05845 0.780361 7.05845 1.06203V8.46588L3.96953 29.0717L0.0116506 55.4706C-0.029655 55.7468 0.0398152 56.028 0.205044 56.2535C0.370272 56.4791 0.617985 56.6308 0.894634 56.6759L33.4961 61.986C33.762 62.0294 34.0345 61.9709 34.2588 61.8223C34.4831 61.6737 34.6426 61.4459 34.7051 61.185L39 43.335L43.2949 61.1856C43.3507 61.4174 43.4832 61.6238 43.6711 61.7716C43.859 61.9193 44.0914 61.9997 44.3308 62C44.3886 62 44.4462 61.9956 44.5033 61.9866L77.1048 56.6765C77.3815 56.6315 77.6294 56.4799 77.7948 56.2543C77.9601 56.0288 78.0297 55.7475 77.9884 55.4712ZM40.0664 38.6524V32.79C41.9498 32.5322 43.676 31.6049 44.9266 30.179C46.1773 28.7531 46.868 26.9249 46.8713 25.0317V9.6068H59.1252L60.5651 17.9343C61.0014 20.4102 62.0669 22.7336 63.6601 24.6832C65.2533 26.6329 67.3212 28.1439 69.6668 29.0723L72.0116 29.9923L74.8982 49.2465L43.8354 54.317L40.0664 38.6524ZM34.1646 54.317L3.10179 49.2465L5.98839 29.9923L8.33326 29.0723C10.6789 28.1439 12.7467 26.6329 14.3399 24.6832C15.9331 22.7336 16.9986 20.4102 17.4349 17.9343L18.8748 9.6068H37.9336V38.6524L34.1646 54.317ZM9.0444 9.6068H16.7109L15.3331 17.5738C14.9601 19.6905 14.0492 21.6767 12.6872 23.3435C11.3251 25.0102 9.5573 26.302 7.55204 27.0957L6.35158 27.5666L9.0444 9.6068ZM44.7385 9.6068V25.0317C44.7367 26.3627 44.2693 27.6514 43.4166 28.6763C42.5639 29.7011 41.3793 30.398 40.0664 30.6471V9.6068H44.7385ZM71.6484 27.5666L70.448 27.0957C68.4427 26.302 66.6749 25.0102 65.3128 23.3435C63.9508 21.6767 63.0399 19.6905 62.6669 17.5738L61.2891 9.6068H68.9556L71.6484 27.5666ZM68.8088 7.48275H53.2953V2.12224H68.8088V7.48275ZM51.1625 2.12224V7.48275H26.8375V2.12224H51.1625ZM9.19126 2.12224H24.7047V7.48275H9.19126V2.12224ZM32.8618 59.7309L2.27669 54.7491L2.78674 51.3475L33.6662 56.3882L32.8618 59.7309ZM45.1382 59.7309L44.3339 56.3882L75.2133 51.3475L75.7233 54.7491L45.1382 59.7309Z" fill="black"/>
</svg>
